{"title":"Fakiren fra Bilbao.DVDrip.Norsk tekst.AC3-5.1.Ripp Robban","uid":6131686,"size":1218074588,"categoryP":"video","categoryS":"movies","magnet":"?xt=urn:btih:5e30a712899604206d9fb589dd5494b08da49682&amp;dn=Fakiren+fra+Bilbao.DVDrip.Norsk+tekst.AC3-5.1.Ripp+Robban&amp;tr=udp%3A%2F%2Ftracker.openbittorrent.com%3A80&amp;tr=udp%3A%2F%2Fopen.demonii.com%3A1337&amp;tr=udp%3A%2F%2Ftracker.coppersurfer.tk%3A6969&amp;tr=udp%3A%2F%2Fexodus.desync.com%3A6969","seeders":0,"leechers":1,"uploader":"pobban2","files":-1,"time":1296151641,"description":"Sammen med sin mor, flytter tvillinene Emma og Tom inn i &quot;Elgens ÃƒËœye&quot; - et gammelt spÃƒÂ¸kelseshus, som har stÃƒÂ¥tt tomt i ÃƒÂ¥revis. Snart oppdager de at huset gjemmer pÃƒÂ¥ en verdifull hemmelighet: en kostbar kjempediamant, som to farlige forbrytere vil gjÃƒÂ¸re alt for ÃƒÂ¥ fÃƒÂ¥ tak i. I deres jakt pÃƒÂ¥ ÃƒÂ¥ finne diamanten fÃƒÂ¸r forbryterne, fÃƒÂ¥r tvillingene plutselig hjelp fra et vennlig spÃƒÂ¸kelse. Fakiren fra Bilbao, som har vÃƒÂ¦rt innesperret i en kulepenn i et halvt ÃƒÂ¥rhundre! \n\nSkuespillere Peter Gantzler, Fares Fares, Ole Thestrup, Sidse Babett Knudsen, Julie Zangenberg, Aksel Leth \nRegissÃƒÂ¸r Peter Flinth \nOriginaltittel Fakiren fra Bilbao \nVarighet DVD: 1 tim 24 min  \nAldersgrense  \nFilmsamlinger Basert pÃƒÂ¥ bok \nSjangre Barn og familie, Eventyr, Internasjonalt \nSprÃƒÂ¥k DVD: Dansk \nUndertekster DVD: Svensk, Dansk, Norsk, Finsk, Engelsk \nReleasedato ProduksjonsÃƒÂ¥r: 2004\n\n \nGeneral\nComplete name                    : D:\\Downloads\\AVI\\FAKIREN_FRA_BILBAO\\Fakiren bra Bilbao.DVDrip.Norsk tekst.AC3-5.1.Ripp Robban.avi\nFormat                           : AVI\nFormat/Info                      : Audio Video Interleave\nFormat profile                   : OpenDML\nFile size                        : 1.13 GiB\nDuration                         : 1h 24mn\nOverall bit rate                 : 1 919 Kbps\nMovie name                       : Fakiren bra Bilbao.DVDrip.Norsk tekst.AC3-5.1.Ripp Robban\nWriting application              : Lavf52.78.4\nOriginal source form/Name        : FAKIREN_FRA_BILBAO\n\nVideo\nID                               : 0\nFormat                           : MPEG-4 Visual\nFormat profile                   : Advanced Simple@L5\nFormat settings, BVOP            : 2\nFormat settings, QPel            : No\nFormat settings, GMC             : No warppoints\nFormat settings, Matrix          : Default (H.263)\nMuxing mode                      : Packed bitstream\nCodec ID                         : DX50\nCodec ID/Hint                    : DivX 5\nDuration                         : 1h 24mn\nBit rate                         : 1 522 Kbps\nWidth                            : 720 pixels\nHeight                           : 308 pixels\nDisplay aspect ratio             : 2.35:1\nFrame rate                       : 25.000 fps\nColor space                      : YUV\nChroma subsampling               : 4:2:0\nBit depth                        : 8 bits\nScan type                        : Progressive\nCompression mode                 : Lossy\nBits/(Pixel*Frame)               : 0.274\nStream size                      : 921 MiB (79%)\nWriting library                  : XviD 1.2.1 (UTC 2008-12-04)\n\nAudio\nID                               : 1\nFormat                           : AC-3\nFormat/Info                      : Audio Coding 3\nMode extension                   : CM (complete main)\nCodec ID                         : 2000\nDuration                         : 1h 24mn\nBit rate mode                    : Constant\nBit rate                         : 384 Kbps\nChannel(s)                       : 2 channels\nChannel positions                : Front: L R\nSampling rate                    : 48.0 KHz\nBit depth                        : 16 bits\nCompression mode                 : Lossy\nStream size                      : 26.6 MiB (2%)\nAlignment                        : Aligned on interleaves\nInterleave, duration             : 280 ms (7.00 video frames)\nInterleave, preload duration     : 32 ms\n\n","torrent":{"xt":"urn:btih:5e30a712899604206d9fb589dd5494b08da49682","amp;dn":"Fakiren+fra+Bilbao.DVDrip.Norsk+tekst.AC3-5.1.Ripp+Robban","amp;tr":["udp%3A%2F%2Ftracker.openbittorrent.com%3A80","udp%3A%2F%2Fopen.demonii.com%3A1337","udp%3A%2F%2Ftracker.coppersurfer.tk%3A6969","udp%3A%2F%2Fexodus.desync.com%3A6969"],"infoHash":"5e30a712899604206d9fb589dd5494b08da49682","infoHashBuffer":{"type":"Buffer","data":[94,48,167,18,137,150,4,32,109,159,181,137,221,84,148,176,141,164,150,130]},"announce":[],"urlList":[]}}